<mxfile host="Electron" modified="2023-05-15T09:58:32.958Z" agent="Mozilla/5.0 (Windows NT 10.0; Win64; x64) AppleWebKit/537.36 (KHTML, like Gecko) draw.io/21.2.8 Chrome/112.0.5615.165 Electron/24.2.0 Safari/537.36" etag="oKa93oX033CSrHk87jM9" version="21.2.8" type="device">
  <diagram name="Page-1" id="QwuiPtVjjbKvunVvZEUO">
    <mxGraphModel dx="2245" dy="902" grid="1" gridSize="12" guides="1" tooltips="1" connect="1" arrows="1" fold="1" page="1" pageScale="1" pageWidth="827" pageHeight="1169" math="0" shadow="0">
      <root>
        <mxCell id="0" />
        <mxCell id="1" parent="0" />
        <mxCell id="vuFjOAxfOEGGLXAHmZrd-15" style="edgeStyle=orthogonalEdgeStyle;rounded=0;orthogonalLoop=1;jettySize=auto;html=1;entryX=0.277;entryY=0.6;entryDx=0;entryDy=0;entryPerimeter=0;" edge="1" parent="1" target="vuFjOAxfOEGGLXAHmZrd-14">
          <mxGeometry relative="1" as="geometry">
            <mxPoint x="535" y="630" as="sourcePoint" />
          </mxGeometry>
        </mxCell>
        <mxCell id="vuFjOAxfOEGGLXAHmZrd-18" style="edgeStyle=orthogonalEdgeStyle;rounded=0;orthogonalLoop=1;jettySize=auto;html=1;exitX=0.5;exitY=1;exitDx=0;exitDy=0;" edge="1" parent="1" source="vuFjOAxfOEGGLXAHmZrd-2" target="vuFjOAxfOEGGLXAHmZrd-16">
          <mxGeometry relative="1" as="geometry" />
        </mxCell>
        <mxCell id="vuFjOAxfOEGGLXAHmZrd-2" value="" style="image;aspect=fixed;perimeter=ellipsePerimeter;html=1;align=center;shadow=0;dashed=0;fontColor=#4277BB;labelBackgroundColor=default;fontSize=12;spacingTop=3;image=img/lib/ibm/applications/api_polyglot_runtimes.svg;" vertex="1" parent="1">
          <mxGeometry x="380" y="252" width="130" height="130" as="geometry" />
        </mxCell>
        <mxCell id="vuFjOAxfOEGGLXAHmZrd-10" style="edgeStyle=orthogonalEdgeStyle;rounded=0;orthogonalLoop=1;jettySize=auto;html=1;" edge="1" parent="1" source="vuFjOAxfOEGGLXAHmZrd-3" target="vuFjOAxfOEGGLXAHmZrd-2">
          <mxGeometry relative="1" as="geometry" />
        </mxCell>
        <mxCell id="vuFjOAxfOEGGLXAHmZrd-3" value="AVIS" style="sketch=0;outlineConnect=0;fontColor=#232F3E;gradientColor=none;strokeColor=#232F3E;fillColor=#ffffff;dashed=0;verticalLabelPosition=bottom;verticalAlign=top;align=center;html=1;fontSize=38;fontStyle=0;aspect=fixed;shape=mxgraph.aws4.resourceIcon;resIcon=mxgraph.aws4.users;labelBackgroundColor=none;spacingLeft=0;spacing=11;" vertex="1" parent="1">
          <mxGeometry x="-96" y="96" width="216" height="216" as="geometry" />
        </mxCell>
        <mxCell id="vuFjOAxfOEGGLXAHmZrd-11" value="&lt;font style=&quot;font-size: 40px;&quot;&gt;NLP&lt;/font&gt;" style="whiteSpace=wrap;html=1;verticalAlign=top;fontColor=#4277BB;labelBackgroundColor=default;shadow=0;dashed=0;spacingTop=3;" vertex="1" parent="1">
          <mxGeometry x="385" y="61" width="120" height="60" as="geometry" />
        </mxCell>
        <mxCell id="vuFjOAxfOEGGLXAHmZrd-14" value="" style="image;aspect=fixed;perimeter=ellipsePerimeter;html=1;align=center;shadow=0;dashed=0;fontColor=#4277BB;labelBackgroundColor=default;fontSize=12;spacingTop=3;image=img/lib/ibm/applications/api_polyglot_runtimes.svg;" vertex="1" parent="1">
          <mxGeometry x="744" y="552" width="130" height="130" as="geometry" />
        </mxCell>
        <mxCell id="vuFjOAxfOEGGLXAHmZrd-16" value="" style="image;aspect=fixed;perimeter=ellipsePerimeter;html=1;align=center;shadow=0;dashed=0;fontColor=#4277BB;labelBackgroundColor=default;fontSize=12;spacingTop=3;image=img/lib/ibm/data/data_services.svg;" vertex="1" parent="1">
          <mxGeometry x="349" y="540" width="192" height="192" as="geometry" />
        </mxCell>
        <mxCell id="vuFjOAxfOEGGLXAHmZrd-28" value="" style="shape=flexArrow;endArrow=classic;startArrow=classic;html=1;rounded=0;width=18.18181818181818;startSize=3.3636363636363633;startWidth=0;exitX=0.5;exitY=0;exitDx=0;exitDy=0;" edge="1" parent="1" source="vuFjOAxfOEGGLXAHmZrd-2">
          <mxGeometry width="100" height="100" relative="1" as="geometry">
            <mxPoint x="348" y="220" as="sourcePoint" />
            <mxPoint x="448" y="120" as="targetPoint" />
          </mxGeometry>
        </mxCell>
        <mxCell id="vuFjOAxfOEGGLXAHmZrd-30" style="edgeStyle=orthogonalEdgeStyle;rounded=0;orthogonalLoop=1;jettySize=auto;html=1;" edge="1" parent="1" source="vuFjOAxfOEGGLXAHmZrd-29">
          <mxGeometry relative="1" as="geometry">
            <mxPoint x="816" y="552" as="targetPoint" />
          </mxGeometry>
        </mxCell>
        <mxCell id="vuFjOAxfOEGGLXAHmZrd-29" value="&lt;font style=&quot;font-size: 22px;&quot;&gt;STREAMLIT&lt;/font&gt;" style="image;aspect=fixed;perimeter=ellipsePerimeter;html=1;align=center;shadow=0;dashed=0;spacingTop=3;image=img/lib/active_directory/home_page.svg;" vertex="1" parent="1">
          <mxGeometry x="960" y="36" width="333.33" height="300" as="geometry" />
        </mxCell>
      </root>
    </mxGraphModel>
  </diagram>
</mxfile>
